# Blender v3.1.2 OBJ File: 'limits.blend'
# www.blender.org
mtllib limit2.mtl
o Cylinder.001_Cylinder.002
v 14.194973 -1.000000 -9.615242
v 14.194973 1.000000 -9.615242
v 16.971298 -1.000000 -5.365831
v 16.971298 1.000000 -5.365831
v 16.077080 -1.000000 0.000001
v 16.077080 1.000000 0.000001
v 15.796133 -1.000000 4.944273
v 15.796133 1.000000 4.944273
v 13.390414 -1.000000 10.041309
v 13.390414 1.000000 10.041309
v 9.404563 -1.000000 12.944273
v 9.404563 1.000000 12.944273
v 4.712637 -1.000000 14.548397
v 4.712637 1.000000 14.548397
v -0.077863 -1.000000 16.584591
v -0.077863 1.000000 16.584591
v -5.272530 -1.000000 15.949152
v -5.272530 1.000000 15.949152
v -9.404566 -1.000000 12.944271
v -9.404566 1.000000 12.944271
v -12.944274 -1.000000 9.404561
v -12.944274 1.000000 9.404561
v 13.485224 1.000000 -9.134480
v 15.006327 1.000000 4.697059
v 16.122732 1.000000 -5.097540
v -12.297060 1.000000 8.934333
v 12.720893 1.000000 9.539244
v -0.073970 1.000000 15.755362
v 8.934335 1.000000 12.297059
v 15.273226 1.000000 0.000001
v -8.934338 1.000000 12.297057
v 4.477005 1.000000 13.820977
v -5.008904 1.000000 15.151694
v 13.485224 -1.000000 -9.134480
v -12.297060 -1.000000 8.934333
v 16.122732 -1.000000 -5.097540
v 15.006327 -1.000000 4.697059
v -0.073970 -1.000000 15.755362
v -8.934338 -1.000000 12.297057
v 15.273226 -1.000000 0.000001
v 4.477005 -1.000000 13.820977
v 8.934335 -1.000000 12.297059
v -5.008904 -1.000000 15.151694
v 12.720893 -1.000000 9.539244
vt 0.850000 0.500000
vt 0.850000 1.000000
vt 0.800000 1.000000
vt 0.800000 0.500000
vt 0.750000 1.000000
vt 0.750000 0.500000
vt 0.700000 1.000000
vt 0.700000 0.500000
vt 0.650000 1.000000
vt 0.650000 0.500000
vt 0.600000 1.000000
vt 0.600000 0.500000
vt 0.550000 1.000000
vt 0.550000 0.500000
vt 0.500000 1.000000
vt 0.500000 0.500000
vt 0.450000 1.000000
vt 0.450000 0.500000
vt 0.400000 1.000000
vt 0.400000 0.500000
vt 0.350000 1.000000
vt 0.350000 0.500000
vt 0.319793 0.035492
vt 0.324164 0.021746
vt 0.391068 0.055836
vt 0.444164 0.108932
vt 0.478254 0.175836
vt 0.490000 0.250000
vt 0.478254 0.324164
vt 0.444164 0.391068
vt 0.434362 0.386565
vt 0.468925 0.321257
vt 0.475375 0.249760
vt 0.467278 0.180191
vt 0.434678 0.114665
vt 0.383643 0.065474
vt 0.800000 0.787147
vt 0.850000 0.787147
vt 0.850000 0.712853
vt 0.800000 0.712853
vt 0.750000 0.712853
vt 0.750000 0.787147
vt 0.700000 0.787147
vt 0.700000 0.712853
vt 0.650000 0.787147
vt 0.650000 0.712853
vt 0.600000 0.787147
vt 0.600000 0.712853
vt 0.550000 0.787147
vt 0.550000 0.712853
vt 0.500000 0.787147
vt 0.500000 0.712853
vt 0.450000 0.712853
vt 0.450000 0.787147
vt 0.400000 0.787147
vt 0.400000 0.712853
vt 0.350000 0.712853
vt 0.350000 0.787147
vt 0.934362 0.386565
vt 0.944164 0.391068
vt 0.978254 0.324164
vt 0.990000 0.250000
vt 0.978254 0.175836
vt 0.944164 0.108932
vt 0.891068 0.055836
vt 0.824164 0.021746
vt 0.750000 0.010000
vt 0.675836 0.021746
vt 0.608932 0.055836
vt 0.555836 0.108932
vt 0.564148 0.116278
vt 0.616169 0.066373
vt 0.678820 0.032187
vt 0.750295 0.020758
vt 0.819793 0.035492
vt 0.883643 0.065474
vt 0.934678 0.114665
vt 0.967278 0.180191
vt 0.975375 0.249760
vt 0.968926 0.321257
vt 0.064148 0.116278
vt 0.055836 0.108932
vt 0.108932 0.055836
vt 0.175836 0.021746
vt 0.250000 0.010000
vt 0.250295 0.020758
vt 0.178820 0.032187
vt 0.116169 0.066373
vn 0.8372 0.0000 -0.5470
vn 0.9864 0.0000 0.1644
vn 0.9984 0.0000 0.0567
vn 0.9043 0.0000 0.4268
vn 0.5887 0.0000 0.8083
vn 0.3235 0.0000 0.9462
vn 0.3912 0.0000 0.9203
vn -0.1214 0.0000 0.9926
vn -0.5881 0.0000 0.8088
vn -0.7071 0.0000 0.7071
vn 0.0000 1.0000 0.0000
vn -0.8372 0.0000 0.5470
vn -0.9864 0.0000 -0.1644
vn -0.9984 0.0000 -0.0567
vn -0.9043 0.0000 -0.4268
vn -0.5887 0.0000 -0.8083
vn -0.3235 0.0000 -0.9462
vn -0.3912 0.0000 -0.9203
vn 0.1214 0.0000 -0.9926
vn 0.5881 0.0000 -0.8088
vn 0.7071 0.0000 -0.7071
vn 0.0000 -1.0000 -0.0000
usemtl None
s off
f 1/1/1 2/2/1 4/3/1 3/4/1
f 3/4/2 4/3/2 6/5/2 5/6/2
f 5/6/3 6/5/3 8/7/3 7/8/3
f 7/8/4 8/7/4 10/9/4 9/10/4
f 9/10/5 10/9/5 12/11/5 11/12/5
f 11/12/6 12/11/6 14/13/6 13/14/6
f 13/14/7 14/13/7 16/15/7 15/16/7
f 15/16/8 16/15/8 18/17/8 17/18/8
f 17/18/9 18/17/9 20/19/9 19/20/9
f 19/20/10 20/19/10 22/21/10 21/22/10
f 32/23/11 14/24/11 12/25/11 10/26/11 8/27/11 6/28/11 4/29/11 2/30/11 23/31/11 25/32/11 30/33/11 24/34/11 27/35/11 29/36/11
f 25/37/12 23/38/12 34/39/12 36/40/12
f 25/37/13 36/40/13 40/41/13 30/42/13
f 24/43/14 30/42/14 40/41/14 37/44/14
f 27/45/15 24/43/15 37/44/15 44/46/15
f 29/47/16 27/45/16 44/46/16 42/48/16
f 32/49/17 29/47/17 42/48/17 41/50/17
f 28/51/18 32/49/18 41/50/18 38/52/18
f 43/53/19 33/54/19 28/51/19 38/52/19
f 31/55/20 33/54/20 43/53/20 39/56/20
f 35/57/21 26/58/21 31/55/21 39/56/21
f 34/59/22 1/60/22 3/61/22 5/62/22 7/63/22 9/64/22 11/65/22 13/66/22 15/67/22 17/68/22 19/69/22 21/70/22 35/71/22 39/72/22 43/73/22 38/74/22 41/75/22 42/76/22 44/77/22 37/78/22 40/79/22 36/80/22
f 26/81/11 22/82/11 20/83/11 18/84/11 16/85/11 14/24/11 32/23/11 28/86/11 33/87/11 31/88/11
