# Blender v3.1.2 OBJ File: ''
# www.blender.org
mtllib limits1_level4.mtl
o Cylinder_Cylinder.002
v 0.016175 -0.999997 -16.888214
v 0.016175 1.000003 -16.888214
v 5.762561 1.000003 -15.717102
v 5.762561 -0.999997 -15.717102
v 10.287300 -0.999998 -11.390201
v 10.287300 1.000002 -11.390201
v 14.194973 1.000002 -9.615242
v 14.194973 -0.999998 -9.615242
v 16.971298 1.000001 -5.365831
v 16.971298 -0.999999 -5.365831
v 16.077080 1.000000 0.000001
v 16.077080 -1.000000 0.000001
v 15.796133 0.999999 4.944273
v 15.796133 -1.000001 4.944273
v 13.390414 0.999998 10.041309
v 13.390414 -1.000002 10.041309
v 9.404563 0.999998 12.944273
v 9.404563 -1.000002 12.944273
v 4.712637 0.999998 14.548397
v 4.712637 -1.000002 14.548397
v -0.077863 0.999997 16.584591
v -0.077863 -1.000003 16.584591
v -5.272530 0.999997 15.949152
v -5.272530 -1.000003 15.949152
v -9.404566 0.999998 12.944271
v -9.404566 -1.000002 12.944271
v -12.944274 0.999998 9.404561
v -12.944274 -1.000002 9.404561
v -14.074374 0.999999 5.110820
v -14.074374 -1.000001 5.110820
v -16.783354 1.000000 0.247794
v -16.783354 -1.000000 0.247794
v -16.314594 1.000001 -4.971715
v -16.314594 -0.999999 -4.971715
v -12.944274 1.000002 -9.404561
v -12.944274 -0.999998 -9.404561
v -9.661573 1.000002 -13.412016
v -9.661573 -0.999998 -13.412016
v 4.477005 0.999998 13.820977
v 9.772935 1.000002 -10.820690
v 13.485224 1.000001 -9.134480
v 16.122732 1.000001 -5.097540
v 15.273226 1.000000 0.000001
v 15.006327 0.999999 4.697059
v 12.720893 0.999998 9.539244
v 8.934335 0.999998 12.297059
v -13.336325 0.999999 4.985717
v -0.073970 0.999997 15.755362
v -5.008904 0.999998 15.151694
v -8.934338 0.999998 12.297057
v -12.297060 0.999999 8.934333
v -5.182717 1.000002 -14.678131
v -5.182717 -0.999998 -14.678131
v -13.460085 -1.000001 4.694740
v 5.474433 -0.999998 -14.931247
v 0.015367 -0.999997 -16.043802
v -4.923581 -0.999998 -13.944224
v -9.178494 -0.999998 -12.741415
v -12.297060 -0.999999 -8.934333
v -15.498864 -0.999999 -4.723130
v -15.944186 -1.000000 0.235405
v -13.370655 -1.000001 4.855279
v -12.297060 -1.000001 8.934333
v -8.934338 -1.000002 12.297057
v -5.008904 -1.000003 15.151694
v -0.073970 -1.000003 15.755362
v 4.477005 -1.000002 13.820977
v 8.934335 -1.000002 12.297059
v 12.720893 -1.000002 9.539244
v 15.006327 -1.000001 4.697059
v 15.273226 -1.000000 0.000001
v 16.122732 -0.999999 -5.097540
v 13.485224 -0.999999 -9.134480
v 9.924094 -0.999998 -10.752030
v 5.474433 1.000002 -14.931247
v 0.015367 1.000003 -16.043802
v 9.772935 -0.999998 -10.820690
v -13.370655 0.999999 4.855279
v -15.944186 1.000000 0.235405
v -15.498864 1.000001 -4.723130
v -12.297060 1.000001 -8.934333
v -9.178494 1.000002 -12.741415
v -4.923581 1.000002 -13.944224
vt 1.000000 0.500000
vt 1.000000 1.000000
vt 0.950000 1.000000
vt 0.950000 0.500000
vt 0.900000 0.500000
vt 0.900000 1.000000
vt 0.850000 1.000000
vt 0.850000 0.500000
vt 0.800000 1.000000
vt 0.800000 0.500000
vt 0.750000 1.000000
vt 0.750000 0.500000
vt 0.700000 1.000000
vt 0.700000 0.500000
vt 0.650000 1.000000
vt 0.650000 0.500000
vt 0.600000 1.000000
vt 0.600000 0.500000
vt 0.550000 1.000000
vt 0.550000 0.500000
vt 0.500000 0.500000
vt 0.500000 1.000000
vt 0.450000 1.000000
vt 0.450000 0.500000
vt 0.400000 1.000000
vt 0.400000 0.500000
vt 0.350000 1.000000
vt 0.350000 0.500000
vt 0.300000 1.000000
vt 0.300000 0.500000
vt 0.250000 1.000000
vt 0.250000 0.500000
vt 0.200000 1.000000
vt 0.200000 0.500000
vt 0.150000 1.000000
vt 0.150000 0.500000
vt 0.100000 1.000000
vt 0.100000 0.500000
vt 0.319793 0.035492
vt 0.324164 0.021746
vt 0.391068 0.055836
vt 0.444164 0.108932
vt 0.478254 0.175836
vt 0.490000 0.250000
vt 0.478254 0.324164
vt 0.444164 0.391068
vt 0.391068 0.444164
vt 0.383627 0.429648
vt 0.434362 0.386565
vt 0.468925 0.321257
vt 0.475375 0.249760
vt 0.467278 0.180191
vt 0.434678 0.114665
vt 0.383643 0.065474
vt 0.037235 0.177422
vt 0.021746 0.175836
vt 0.055836 0.108932
vt 0.108932 0.055836
vt 0.175836 0.021746
vt 0.250000 0.010000
vt 0.250295 0.020758
vt 0.178820 0.032187
vt 0.116169 0.066373
vt 0.064148 0.116278
vt 0.050000 0.500000
vt 0.050000 1.000000
vt -0.000000 1.000000
vt -0.000000 0.500000
vt 0.535552 0.181899
vt 0.521746 0.175836
vt 0.510000 0.250000
vt 0.521746 0.324164
vt 0.555836 0.391068
vt 0.608932 0.444164
vt 0.615644 0.436068
vt 0.566814 0.383586
vt 0.531565 0.320815
vt 0.520094 0.249711
vt 0.891068 0.444164
vt 0.944164 0.391068
vt 0.978254 0.324164
vt 0.990000 0.250000
vt 0.978254 0.175836
vt 0.944164 0.108932
vt 0.891068 0.055836
vt 0.824164 0.021746
vt 0.819793 0.035492
vt 0.883643 0.065474
vt 0.934678 0.114665
vt 0.967278 0.180191
vt 0.975375 0.249760
vt 0.968926 0.321257
vt 0.934362 0.386565
vt 0.885765 0.428737
vt 0.950000 0.712853
vt 0.950000 0.787147
vt 1.000000 0.787147
vt 1.000000 0.712853
vt 0.850000 0.712853
vt 0.850000 0.787147
vt 0.900000 0.787147
vt 0.900000 0.712853
vt 0.897964 0.712853
vt 0.800000 0.787147
vt 0.800000 0.712853
vt 0.750000 0.712853
vt 0.750000 0.787147
vt 0.700000 0.787147
vt 0.700000 0.712853
vt 0.650000 0.787147
vt 0.650000 0.712853
vt 0.600000 0.787147
vt 0.600000 0.712853
vt 0.550000 0.787147
vt 0.550000 0.712853
vt 0.450000 0.712853
vt 0.450000 0.787147
vt 0.500000 0.787147
vt 0.500000 0.712853
vt 0.400000 0.787147
vt 0.400000 0.712853
vt 0.350000 0.712853
vt 0.350000 0.787147
vt 0.300000 0.712853
vt 0.300000 0.787147
vt 0.301599 0.787147
vt 0.250000 0.712853
vt 0.250000 0.787147
vt 0.298262 0.712853
vt 0.200000 0.712853
vt 0.200000 0.787147
vt 0.150000 0.712853
vt 0.150000 0.787147
vt 0.100000 0.712853
vt 0.100000 0.787147
vt -0.000000 0.712853
vt -0.000000 0.787147
vt 0.050000 0.787147
vt 0.050000 0.712853
vt 0.320908 0.468429
vt 0.324164 0.478254
vt 0.250000 0.490000
vt 0.175836 0.478254
vt 0.178981 0.464140
vt 0.249370 0.479848
vt 0.115644 0.436068
vt 0.108932 0.444164
vt 0.055836 0.391068
vt 0.021746 0.324164
vt 0.010000 0.250000
vt 0.036823 0.179423
vt 0.020094 0.249711
vt 0.031565 0.320815
vt 0.066814 0.383586
vt 0.678981 0.464140
vt 0.675836 0.478254
vt 0.750000 0.490000
vt 0.824164 0.478254
vt 0.820908 0.468429
vt 0.749371 0.479848
vt 0.750295 0.020758
vt 0.750000 0.010000
vt 0.675836 0.021746
vt 0.608932 0.055836
vt 0.555836 0.108932
vt 0.536823 0.179423
vt 0.564148 0.116278
vt 0.616169 0.066373
vt 0.678820 0.032187
vn 0.1997 0.0000 -0.9799
vn 0.4136 0.0000 -0.9105
vn 0.8372 0.0000 -0.5470
vn 0.9864 0.0000 0.1644
vn 0.9984 -0.0000 0.0567
vn 0.9043 0.0000 0.4268
vn 0.5887 0.0000 0.8083
vn 0.3235 0.0000 0.9462
vn -0.1214 0.0000 0.9926
vn -0.5881 0.0000 0.8088
vn -0.7071 0.0000 0.7071
vn -0.9671 0.0000 0.2545
vn -0.8736 0.0000 0.4866
vn -0.9960 0.0000 -0.0894
vn -0.7960 0.0000 -0.6052
vn -0.7736 0.0000 -0.6337
vn -0.0000 1.0000 0.0000
vn -0.3912 0.0000 -0.9203
vn -0.0000 -1.0000 -0.0000
vn -0.1997 0.0000 0.9799
vn -0.4136 0.0000 0.9105
vn -0.8372 0.0000 0.5470
vn -0.9864 -0.0000 -0.1644
vn -0.9984 0.0000 -0.0567
vn -0.9043 0.0000 -0.4268
vn -0.5887 0.0000 -0.8083
vn -0.3235 0.0000 -0.9462
vn 0.1214 0.0000 -0.9926
vn 0.5881 0.0000 -0.8088
vn 0.7071 0.0000 -0.7071
vn 0.9671 0.0000 -0.2545
vn 0.8736 0.0000 -0.4866
vn 0.9960 -0.0000 0.0894
vn 0.7960 0.0000 0.6052
vn 0.7736 0.0000 0.6337
vn 0.3912 0.0000 0.9203
usemtl None.001
s 1
f 1/1/1 2/2/1 3/3/1 4/4/1
f 5/5/2 6/6/2 7/7/2 8/8/2
f 8/8/3 7/7/3 9/9/3 10/10/3
f 10/10/4 9/9/4 11/11/4 12/12/4
f 12/12/5 11/11/5 13/13/5 14/14/5
f 14/14/6 13/13/6 15/15/6 16/16/6
f 16/16/7 15/15/7 17/17/7 18/18/7
f 18/18/8 17/17/8 19/19/8 20/20/8
f 22/21/9 21/22/9 23/23/9 24/24/9
f 24/24/10 23/23/10 25/25/10 26/26/10
f 26/26/11 25/25/11 27/27/11 28/28/11
f 28/28/12 27/27/12 29/29/12 30/30/12
f 30/30/13 29/29/13 31/31/13 32/32/13
f 32/32/14 31/31/14 33/33/14 34/34/14
f 34/34/15 33/33/15 35/35/15 36/36/15
f 36/36/16 35/35/16 37/37/16 38/38/16
f 39/39/17 19/40/17 17/41/17 15/42/17 13/43/17 11/44/17 9/45/17 7/46/17 6/47/17 40/48/17 41/49/17 42/50/17 43/51/17 44/52/17 45/53/17 46/54/17
f 47/55/17 29/56/17 27/57/17 25/58/17 23/59/17 21/60/17 48/61/17 49/62/17 50/63/17 51/64/17
f 53/65/18 52/66/18 2/67/18 1/68/18
f 54/69/19 30/70/19 32/71/19 34/72/19 36/73/19 38/74/19 58/75/19 59/76/19 60/77/19 61/78/19
f 5/79/19 8/80/19 10/81/19 12/82/19 14/83/19 16/84/19 18/85/19 20/86/19 67/87/19 68/88/19 69/89/19 70/90/19 71/91/19 72/92/19 73/93/19 74/94/19
f 55/95/20 75/96/20 76/97/20 56/98/20
f 73/99/21 41/100/21 40/101/21 77/102/21 74/103/21
f 42/104/22 41/100/22 73/99/22 72/105/22
f 42/104/23 72/105/23 71/106/23 43/107/23
f 44/108/24 43/107/24 71/106/24 70/109/24
f 45/110/25 44/108/25 70/109/25 69/111/25
f 46/112/26 45/110/26 69/111/26 68/113/26
f 39/114/27 46/112/27 68/113/27 67/115/27
f 65/116/28 49/117/28 48/118/28 66/119/28
f 50/120/29 49/117/29 65/116/29 64/121/29
f 63/122/30 51/123/30 50/120/30 64/121/30
f 62/124/31 78/125/31 47/126/31 51/123/31 63/122/31
f 61/127/32 79/128/32 78/125/32 62/124/32 54/129/32
f 60/130/33 80/131/33 79/128/33 61/127/33
f 59/132/34 81/133/34 80/131/34 60/130/34
f 58/134/35 82/135/35 81/133/35 59/132/35
f 56/136/36 76/137/36 83/138/36 57/139/36
f 75/140/17 3/141/17 2/142/17 52/143/17 83/144/17 76/145/17
f 82/146/17 37/147/17 35/148/17 33/149/17 31/150/17 29/56/17 47/55/17 78/151/17 79/152/17 80/153/17 81/154/17
f 57/155/19 53/156/19 1/157/19 4/158/19 55/159/19 56/160/19
f 66/161/19 22/162/19 24/163/19 26/164/19 28/165/19 30/70/19 54/69/19 62/166/19 63/167/19 64/168/19 65/169/19
