# Blender v3.1.2 OBJ File: 'plano.blend'
# www.blender.org
mtllib limits1.mtl
o Cylinder_Cylinder.001
v 0.016175 -1.000000 -16.888214
v 0.016175 1.000000 -16.888214
v 5.762561 -1.000000 -15.717102
v 5.762561 1.000000 -15.717102
v 10.287300 -1.000000 -11.390201
v 10.287300 1.000000 -11.390201
v 14.194973 -1.000000 -9.615242
v 14.194973 1.000000 -9.615242
v 16.971298 -1.000000 -5.365831
v 16.971298 1.000000 -5.365831
v 16.077080 -1.000000 0.000001
v 16.077080 1.000000 0.000001
v 15.796133 -1.000000 4.944273
v 15.796133 1.000000 4.944273
v 13.390414 -1.000000 10.041309
v 13.390414 1.000000 10.041309
v 9.404563 -1.000000 12.944273
v 9.404563 1.000000 12.944273
v 4.712637 -1.000000 14.548397
v 4.712637 1.000000 14.548397
v -0.077863 -1.000000 16.584591
v -0.077863 1.000000 16.584591
v -5.272530 -1.000000 15.949152
v -5.272530 1.000000 15.949152
v -9.404566 -1.000000 12.944271
v -9.404566 1.000000 12.944271
v -12.944274 -1.000000 9.404561
v -12.944274 1.000000 9.404561
v -14.074374 -1.000000 5.110820
v -14.074374 1.000000 5.110820
v -16.783354 -1.000000 0.247794
v -16.783354 1.000000 0.247794
v -16.314594 -1.000000 -4.971715
v -16.314594 1.000000 -4.971715
v -12.944274 -1.000000 -9.404561
v -12.944274 1.000000 -9.404561
v -9.661573 -1.000000 -13.412016
v -9.661573 1.000000 -13.412016
v -5.182717 -1.000000 -14.678131
v -5.182717 1.000000 -14.678131
v 5.474433 1.000000 -14.931247
v -9.178494 1.000000 -12.741415
v 0.015367 1.000000 -16.043802
v 13.485224 1.000000 -9.134480
v 15.006327 1.000000 4.697059
v 16.122732 1.000000 -5.097540
v -4.923581 1.000000 -13.944224
v -15.498864 1.000000 -4.723130
v -12.297060 1.000000 8.934333
v -15.944186 1.000000 0.235405
v 9.772935 1.000000 -10.820690
v 12.720893 1.000000 9.539244
v -0.073970 1.000000 15.755362
v 8.934335 1.000000 12.297059
v -13.370655 1.000000 4.855279
v -13.336325 1.000000 4.985717
v 15.273226 1.000000 0.000001
v -12.297060 1.000000 -8.934333
v -8.934338 1.000000 12.297057
v 4.477005 1.000000 13.820977
v -5.008904 1.000000 15.151694
v 0.015367 -1.000000 -16.043802
v 13.485224 -1.000000 -9.134480
v 5.474433 -1.000000 -14.931247
v -9.178494 -1.000000 -12.741415
v -15.498864 -1.000000 -4.723130
v -12.297060 -1.000000 8.934333
v -15.944186 -1.000000 0.235405
v -4.923581 -1.000000 -13.944224
v 16.122732 -1.000000 -5.097540
v 15.006327 -1.000000 4.697059
v -0.073970 -1.000000 15.755362
v -8.934338 -1.000000 12.297057
v -13.460085 -1.000000 4.694740
v -12.297060 -1.000000 -8.934333
v 15.273226 -1.000000 0.000001
v 4.477005 -1.000000 13.820977
v 8.934335 -1.000000 12.297059
v -13.370655 -1.000000 4.855279
v -5.008904 -1.000000 15.151694
v 9.924094 -1.000000 -10.752030
v 9.772935 -1.000000 -10.820690
v 12.720893 -1.000000 9.539244
vt 1.000000 0.500000
vt 1.000000 1.000000
vt 0.950000 1.000000
vt 0.950000 0.500000
vt 0.900000 0.500000
vt 0.900000 1.000000
vt 0.850000 1.000000
vt 0.850000 0.500000
vt 0.800000 1.000000
vt 0.800000 0.500000
vt 0.750000 1.000000
vt 0.750000 0.500000
vt 0.700000 1.000000
vt 0.700000 0.500000
vt 0.650000 1.000000
vt 0.650000 0.500000
vt 0.600000 1.000000
vt 0.600000 0.500000
vt 0.550000 1.000000
vt 0.550000 0.500000
vt 0.500000 1.000000
vt 0.500000 0.500000
vt 0.450000 1.000000
vt 0.450000 0.500000
vt 0.400000 1.000000
vt 0.400000 0.500000
vt 0.350000 1.000000
vt 0.350000 0.500000
vt 0.300000 1.000000
vt 0.300000 0.500000
vt 0.250000 1.000000
vt 0.250000 0.500000
vt 0.200000 1.000000
vt 0.200000 0.500000
vt 0.150000 1.000000
vt 0.150000 0.500000
vt 0.100000 1.000000
vt 0.100000 0.500000
vt 0.319793 0.035492
vt 0.324164 0.021746
vt 0.391068 0.055836
vt 0.444164 0.108932
vt 0.478254 0.175836
vt 0.490000 0.250000
vt 0.478254 0.324164
vt 0.444164 0.391068
vt 0.391068 0.444164
vt 0.383627 0.429648
vt 0.434362 0.386565
vt 0.468925 0.321257
vt 0.475375 0.249760
vt 0.467278 0.180191
vt 0.434678 0.114665
vt 0.383643 0.065474
vt 0.037235 0.177422
vt 0.021746 0.175836
vt 0.055836 0.108932
vt 0.108932 0.055836
vt 0.175836 0.021746
vt 0.250000 0.010000
vt 0.250295 0.020758
vt 0.178820 0.032187
vt 0.116169 0.066373
vt 0.064148 0.116278
vt 0.050000 1.000000
vt 0.050000 0.500000
vt -0.000000 1.000000
vt -0.000000 0.500000
vt 0.535552 0.181899
vt 0.521746 0.175836
vt 0.510000 0.250000
vt 0.521746 0.324164
vt 0.555836 0.391068
vt 0.608932 0.444164
vt 0.675836 0.478254
vt 0.750000 0.490000
vt 0.824164 0.478254
vt 0.820908 0.468429
vt 0.749371 0.479848
vt 0.678981 0.464140
vt 0.615644 0.436068
vt 0.566814 0.383586
vt 0.531565 0.320815
vt 0.520094 0.249711
vt 0.891068 0.444164
vt 0.944164 0.391068
vt 0.978254 0.324164
vt 0.990000 0.250000
vt 0.978254 0.175836
vt 0.944164 0.108932
vt 0.891068 0.055836
vt 0.824164 0.021746
vt 0.750000 0.010000
vt 0.675836 0.021746
vt 0.608932 0.055836
vt 0.555836 0.108932
vt 0.536823 0.179423
vt 0.564148 0.116278
vt 0.616169 0.066373
vt 0.678820 0.032187
vt 0.750295 0.020758
vt 0.819793 0.035492
vt 0.883643 0.065474
vt 0.934678 0.114665
vt 0.967278 0.180191
vt 0.975375 0.249760
vt 0.968926 0.321257
vt 0.934362 0.386565
vt 0.885765 0.428737
vt 0.950000 0.712853
vt 0.950000 0.787147
vt 1.000000 0.787147
vt 1.000000 0.712853
vt 0.850000 0.712853
vt 0.850000 0.787147
vt 0.900000 0.787147
vt 0.900000 0.712853
vt 0.897964 0.712853
vt 0.800000 0.787147
vt 0.800000 0.712853
vt 0.750000 0.712853
vt 0.750000 0.787147
vt 0.700000 0.787147
vt 0.700000 0.712853
vt 0.650000 0.787147
vt 0.650000 0.712853
vt 0.600000 0.787147
vt 0.600000 0.712853
vt 0.550000 0.787147
vt 0.550000 0.712853
vt 0.500000 0.787147
vt 0.500000 0.712853
vt 0.450000 0.712853
vt 0.450000 0.787147
vt 0.400000 0.787147
vt 0.400000 0.712853
vt 0.350000 0.712853
vt 0.350000 0.787147
vt 0.300000 0.712853
vt 0.300000 0.787147
vt 0.301599 0.787147
vt 0.250000 0.712853
vt 0.250000 0.787147
vt 0.298262 0.712853
vt 0.200000 0.712853
vt 0.200000 0.787147
vt 0.150000 0.712853
vt 0.150000 0.787147
vt 0.100000 0.712853
vt 0.100000 0.787147
vt 0.050000 0.712853
vt 0.050000 0.787147
vt -0.000000 0.712853
vt -0.000000 0.787147
vt 0.320908 0.468429
vt 0.324164 0.478254
vt 0.250000 0.490000
vt 0.175836 0.478254
vt 0.108932 0.444164
vt 0.055836 0.391068
vt 0.021746 0.324164
vt 0.010000 0.250000
vt 0.036823 0.179423
vt 0.020094 0.249711
vt 0.031565 0.320815
vt 0.066814 0.383586
vt 0.115644 0.436068
vt 0.178981 0.464140
vt 0.249370 0.479848
vn 0.1997 0.0000 -0.9799
vn 0.4136 0.0000 -0.9105
vn 0.8372 0.0000 -0.5470
vn 0.9864 0.0000 0.1644
vn 0.9984 0.0000 0.0567
vn 0.9043 0.0000 0.4268
vn 0.5887 0.0000 0.8083
vn 0.3235 0.0000 0.9462
vn 0.3912 0.0000 0.9203
vn -0.1214 0.0000 0.9926
vn -0.5881 0.0000 0.8088
vn -0.7071 0.0000 0.7071
vn -0.9671 0.0000 0.2545
vn -0.8736 0.0000 0.4866
vn -0.9960 0.0000 -0.0894
vn -0.7960 0.0000 -0.6052
vn -0.7736 0.0000 -0.6337
vn 0.0000 1.0000 0.0000
vn -0.2720 0.0000 -0.9623
vn -0.3912 0.0000 -0.9203
vn 0.0000 -1.0000 0.0000
vn -0.1997 0.0000 0.9799
vn -0.4136 0.0000 0.9105
vn -0.8372 0.0000 0.5470
vn -0.9864 0.0000 -0.1644
vn -0.9984 0.0000 -0.0567
vn -0.9043 0.0000 -0.4268
vn -0.5887 0.0000 -0.8083
vn -0.3235 0.0000 -0.9462
vn 0.1214 0.0000 -0.9926
vn 0.5881 0.0000 -0.8088
vn 0.7071 0.0000 -0.7071
vn 0.9671 0.0000 -0.2545
vn 0.8736 0.0000 -0.4866
vn 0.9960 0.0000 0.0894
vn 0.7960 0.0000 0.6052
vn 0.7736 0.0000 0.6337
vn 0.2720 0.0000 0.9623
usemtl None
s off
f 1/1/1 2/2/1 4/3/1 3/4/1
f 5/5/2 6/6/2 8/7/2 7/8/2
f 7/8/3 8/7/3 10/9/3 9/10/3
f 9/10/4 10/9/4 12/11/4 11/12/4
f 11/12/5 12/11/5 14/13/5 13/14/5
f 13/14/6 14/13/6 16/15/6 15/16/6
f 15/16/7 16/15/7 18/17/7 17/18/7
f 17/18/8 18/17/8 20/19/8 19/20/8
f 19/20/9 20/19/9 22/21/9 21/22/9
f 21/22/10 22/21/10 24/23/10 23/24/10
f 23/24/11 24/23/11 26/25/11 25/26/11
f 25/26/12 26/25/12 28/27/12 27/28/12
f 27/28/13 28/27/13 30/29/13 29/30/13
f 29/30/14 30/29/14 32/31/14 31/32/14
f 31/32/15 32/31/15 34/33/15 33/34/15
f 33/34/16 34/33/16 36/35/16 35/36/16
f 35/36/17 36/35/17 38/37/17 37/38/17
f 60/39/18 20/40/18 18/41/18 16/42/18 14/43/18 12/44/18 10/45/18 8/46/18 6/47/18 51/48/18 44/49/18 46/50/18 57/51/18 45/52/18 52/53/18 54/54/18
f 56/55/18 30/56/18 28/57/18 26/58/18 24/59/18 22/60/18 20/40/18 60/39/18 53/61/18 61/62/18 59/63/18 49/64/18
f 37/38/19 38/37/19 40/65/19 39/66/19
f 39/66/20 40/65/20 2/67/20 1/68/20
f 74/69/21 29/70/21 31/71/21 33/72/21 35/73/21 37/74/21 39/75/21 1/76/21 3/77/21 64/78/21 62/79/21 69/80/21 65/81/21 75/82/21 66/83/21 68/84/21
f 5/85/21 7/86/21 9/87/21 11/88/21 13/89/21 15/90/21 17/91/21 19/92/21 21/93/21 23/94/21 25/95/21 27/96/21 29/70/21 74/69/21 79/97/21 67/98/21 73/99/21 80/100/21 72/101/21 77/102/21 78/103/21 83/104/21 71/105/21 76/106/21 70/107/21 63/108/21 81/109/21
f 64/110/22 41/111/22 43/112/22 62/113/22
f 63/114/23 44/115/23 51/116/23 82/117/23 81/118/23
f 46/119/24 44/115/24 63/114/24 70/120/24
f 46/119/25 70/120/25 76/121/25 57/122/25
f 45/123/26 57/122/26 76/121/26 71/124/26
f 52/125/27 45/123/27 71/124/27 83/126/27
f 54/127/28 52/125/28 83/126/28 78/128/28
f 60/129/29 54/127/29 78/128/29 77/130/29
f 53/131/20 60/129/20 77/130/20 72/132/20
f 80/133/30 61/134/30 53/131/30 72/132/30
f 59/135/31 61/134/31 80/133/31 73/136/31
f 67/137/32 49/138/32 59/135/32 73/136/32
f 79/139/33 55/140/33 56/141/33 49/138/33 67/137/33
f 68/142/34 50/143/34 55/140/34 79/139/34 74/144/34
f 66/145/35 48/146/35 50/143/35 68/142/35
f 75/147/36 58/148/36 48/146/36 66/145/36
f 65/149/37 42/150/37 58/148/37 75/147/37
f 69/151/38 47/152/38 42/150/38 65/149/38
f 62/153/9 43/154/9 47/152/9 69/151/9
f 41/155/18 4/156/18 2/157/18 40/158/18 38/159/18 36/160/18 34/161/18 32/162/18 30/56/18 56/55/18 55/163/18 50/164/18 48/165/18 58/166/18 42/167/18 47/168/18 43/169/18
